<svg xmlns="http://www.w3.org/2000/svg" xmlns:xlink="http://www.w3.org/1999/xlink" width="500" zoomAndPan="magnify" viewBox="0 0 375 374.999991" height="500" preserveAspectRatio="xMidYMid meet" version="1.0"><path fill="#ffffff" d="M 312.5 375 L 62.5 375 C 60.453125 374.996094 58.414062 374.894531 56.375 374.695312 C 54.339844 374.492188 52.316406 374.191406 50.3125 373.789062 C 48.304688 373.386719 46.320312 372.890625 44.363281 372.292969 C 42.40625 371.699219 40.480469 371.011719 38.59375 370.226562 C 36.703125 369.441406 34.855469 368.566406 33.050781 367.601562 C 31.246094 366.636719 29.492188 365.585938 27.792969 364.449219 C 26.089844 363.308594 24.449219 362.09375 22.867188 360.792969 C 21.285156 359.496094 19.769531 358.121094 18.324219 356.675781 C 16.878906 355.230469 15.503906 353.714844 14.207031 352.132812 C 12.90625 350.550781 11.691406 348.910156 10.550781 347.207031 C 9.414062 345.507812 8.363281 343.753906 7.398438 341.949219 C 6.433594 340.144531 5.558594 338.296875 4.773438 336.40625 C 3.988281 334.519531 3.300781 332.59375 2.707031 330.636719 C 2.109375 328.679688 1.613281 326.695312 1.210938 324.6875 C 0.808594 322.683594 0.507812 320.660156 0.304688 318.625 C 0.105469 316.585938 0.00390625 314.546875 0 312.5 L 0 62.5 C 0.00390625 60.453125 0.105469 58.414062 0.304688 56.375 C 0.507812 54.339844 0.808594 52.316406 1.210938 50.3125 C 1.613281 48.304688 2.109375 46.320312 2.707031 44.363281 C 3.300781 42.40625 3.988281 40.480469 4.773438 38.59375 C 5.558594 36.703125 6.433594 34.855469 7.398438 33.050781 C 8.363281 31.246094 9.414062 29.492188 10.550781 27.792969 C 11.691406 26.089844 12.90625 24.449219 14.207031 22.867188 C 15.503906 21.285156 16.878906 19.769531 18.324219 18.324219 C 19.769531 16.878906 21.285156 15.503906 22.867188 14.207031 C 24.449219 12.90625 26.089844 11.691406 27.792969 10.550781 C 29.492188 9.414062 31.246094 8.363281 33.050781 7.398438 C 34.855469 6.433594 36.703125 5.558594 38.59375 4.773438 C 40.480469 3.988281 42.40625 3.300781 44.363281 2.707031 C 46.320312 2.109375 48.304688 1.613281 50.3125 1.210938 C 52.316406 0.808594 54.339844 0.507812 56.375 0.304688 C 58.414062 0.105469 60.453125 0.00390625 62.5 0 L 312.5 0 C 314.546875 0.00390625 316.585938 0.105469 318.625 0.304688 C 320.660156 0.507812 322.683594 0.808594 324.6875 1.210938 C 326.695312 1.613281 328.679688 2.109375 330.636719 2.707031 C 332.59375 3.300781 334.519531 3.988281 336.40625 4.773438 C 338.296875 5.558594 340.144531 6.433594 341.949219 7.398438 C 343.753906 8.363281 345.507812 9.414062 347.207031 10.550781 C 348.910156 11.691406 350.550781 12.90625 352.132812 14.207031 C 353.714844 15.503906 355.230469 16.878906 356.675781 18.324219 C 358.121094 19.769531 359.496094 21.285156 360.792969 22.867188 C 362.09375 24.449219 363.308594 26.089844 364.449219 27.792969 C 365.585938 29.492188 366.636719 31.246094 367.601562 33.050781 C 368.566406 34.855469 369.441406 36.703125 370.226562 38.59375 C 371.011719 40.480469 371.699219 42.40625 372.292969 44.363281 C 372.890625 46.320312 373.386719 48.304688 373.789062 50.3125 C 374.191406 52.316406 374.492188 54.339844 374.695312 56.375 C 374.894531 58.414062 374.996094 60.453125 375 62.5 L 375 312.5 C 374.996094 314.546875 374.894531 316.585938 374.695312 318.625 C 374.492188 320.660156 374.191406 322.683594 373.789062 324.6875 C 373.386719 326.695312 372.890625 328.679688 372.292969 330.636719 C 371.699219 332.59375 371.011719 334.519531 370.226562 336.40625 C 369.441406 338.296875 368.566406 340.144531 367.601562 341.949219 C 366.636719 343.753906 365.585938 345.507812 364.449219 347.207031 C 363.308594 348.910156 362.09375 350.550781 360.792969 352.132812 C 359.496094 353.714844 358.121094 355.230469 356.675781 356.675781 C 355.230469 358.121094 353.714844 359.496094 352.132812 360.792969 C 350.550781 362.09375 348.910156 363.308594 347.207031 364.449219 C 345.507812 365.585938 343.753906 366.636719 341.949219 367.601562 C 340.144531 368.566406 338.296875 369.441406 336.40625 370.226562 C 334.519531 371.011719 332.59375 371.699219 330.636719 372.292969 C 328.679688 372.890625 326.695312 373.386719 324.6875 373.789062 C 322.683594 374.191406 320.660156 374.492188 318.625 374.695312 C 316.585938 374.894531 314.546875 374.996094 312.5 375 Z M 62.5 41.667969 C 61.816406 41.667969 61.136719 41.699219 60.457031 41.765625 C 59.777344 41.832031 59.105469 41.933594 58.4375 42.066406 C 57.765625 42.199219 57.105469 42.367188 56.453125 42.5625 C 55.800781 42.761719 55.15625 42.992188 54.527344 43.253906 C 53.898438 43.511719 53.28125 43.804688 52.679688 44.125 C 52.078125 44.449219 51.492188 44.796875 50.925781 45.175781 C 50.359375 45.558594 49.8125 45.960938 49.285156 46.394531 C 48.757812 46.828125 48.25 47.285156 47.769531 47.769531 C 47.285156 48.25 46.828125 48.757812 46.394531 49.285156 C 45.960938 49.8125 45.558594 50.359375 45.175781 50.925781 C 44.796875 51.492188 44.449219 52.078125 44.125 52.679688 C 43.804688 53.28125 43.511719 53.898438 43.253906 54.527344 C 42.992188 55.15625 42.761719 55.800781 42.5625 56.453125 C 42.367188 57.105469 42.199219 57.765625 42.066406 58.4375 C 41.933594 59.105469 41.832031 59.777344 41.765625 60.457031 C 41.699219 61.136719 41.667969 61.816406 41.667969 62.5 L 41.667969 312.5 C 41.667969 313.183594 41.699219 313.863281 41.765625 314.542969 C 41.832031 315.222656 41.933594 315.894531 42.066406 316.5625 C 42.199219 317.234375 42.367188 317.894531 42.5625 318.546875 C 42.761719 319.199219 42.992188 319.84375 43.253906 320.472656 C 43.511719 321.101562 43.804688 321.71875 44.125 322.320312 C 44.449219 322.921875 44.796875 323.507812 45.175781 324.074219 C 45.558594 324.640625 45.960938 325.1875 46.394531 325.714844 C 46.828125 326.242188 47.285156 326.75 47.769531 327.230469 C 48.25 327.714844 48.757812 328.171875 49.285156 328.605469 C 49.8125 329.039062 50.359375 329.441406 50.925781 329.820312 C 51.492188 330.203125 52.078125 330.550781 52.679688 330.875 C 53.28125 331.195312 53.898438 331.484375 54.527344 331.746094 C 55.15625 332.007812 55.800781 332.238281 56.453125 332.4375 C 57.105469 332.632812 57.765625 332.800781 58.4375 332.933594 C 59.105469 333.066406 59.777344 333.167969 60.457031 333.234375 C 61.136719 333.300781 61.816406 333.332031 62.5 333.332031 L 312.5 333.332031 C 313.183594 333.332031 313.863281 333.300781 314.542969 333.234375 C 315.222656 333.167969 315.894531 333.066406 316.5625 332.933594 C 317.234375 332.800781 317.894531 332.632812 318.546875 332.4375 C 319.199219 332.238281 319.84375 332.007812 320.472656 331.746094 C 321.101562 331.484375 321.71875 331.195312 322.320312 330.875 C 322.921875 330.550781 323.507812 330.203125 324.074219 329.820312 C 324.640625 329.441406 325.1875 329.039062 325.714844 328.605469 C 326.242188 328.171875 326.75 327.714844 327.230469 327.230469 C 327.714844 326.75 328.171875 326.242188 328.605469 325.714844 C 329.039062 325.1875 329.441406 324.640625 329.820312 324.074219 C 330.203125 323.507812 330.550781 322.921875 330.875 322.320312 C 331.195312 321.71875 331.484375 321.101562 331.746094 320.472656 C 332.007812 319.84375 332.238281 319.199219 332.4375 318.546875 C 332.632812 317.894531 332.800781 317.234375 332.933594 316.5625 C 333.066406 315.894531 333.167969 315.222656 333.234375 314.542969 C 333.300781 313.863281 333.332031 313.183594 333.332031 312.5 L 333.332031 62.5 C 333.332031 61.816406 333.300781 61.136719 333.234375 60.457031 C 333.167969 59.777344 333.066406 59.105469 332.933594 58.4375 C 332.800781 57.765625 332.632812 57.105469 332.4375 56.453125 C 332.238281 55.800781 332.007812 55.15625 331.746094 54.527344 C 331.484375 53.898438 331.195312 53.28125 330.875 52.679688 C 330.550781 52.078125 330.203125 51.492188 329.820312 50.925781 C 329.441406 50.359375 329.039062 49.8125 328.605469 49.285156 C 328.171875 48.757812 327.714844 48.25 327.230469 47.769531 C 326.75 47.285156 326.242188 46.828125 325.714844 46.394531 C 325.1875 45.960938 324.640625 45.558594 324.074219 45.175781 C 323.507812 44.796875 322.921875 44.449219 322.320312 44.125 C 321.71875 43.804688 321.101562 43.511719 320.472656 43.253906 C 319.84375 42.992188 319.199219 42.761719 318.546875 42.5625 C 317.894531 42.367188 317.234375 42.199219 316.5625 42.066406 C 315.894531 41.933594 315.222656 41.832031 314.542969 41.765625 C 313.863281 41.699219 313.183594 41.667969 312.5 41.667969 Z M 62.5 41.667969 " fill-opacity="1" fill-rule="nonzero"/><path fill="#ffffff" d="M 104.167969 291.667969 C 103.484375 291.667969 102.804688 291.632812 102.125 291.566406 C 101.445312 291.5 100.769531 291.398438 100.101562 291.265625 C 99.433594 291.132812 98.773438 290.96875 98.117188 290.769531 C 97.464844 290.570312 96.824219 290.34375 96.195312 290.082031 C 95.5625 289.820312 94.949219 289.527344 94.347656 289.207031 C 93.742188 288.886719 93.160156 288.535156 92.59375 288.15625 C 92.023438 287.777344 91.476562 287.371094 90.949219 286.9375 C 90.421875 286.503906 89.917969 286.046875 89.433594 285.566406 C 88.953125 285.082031 88.496094 284.578125 88.0625 284.050781 C 87.628906 283.523438 87.222656 282.976562 86.84375 282.40625 C 86.464844 281.839844 86.113281 281.253906 85.792969 280.652344 C 85.472656 280.050781 85.179688 279.4375 84.917969 278.804688 C 84.65625 278.175781 84.429688 277.535156 84.230469 276.882812 C 84.03125 276.226562 83.867188 275.566406 83.734375 274.898438 C 83.601562 274.226562 83.5 273.554688 83.433594 272.875 C 83.367188 272.195312 83.332031 271.515625 83.332031 270.832031 L 83.332031 166.667969 C 83.332031 165.984375 83.367188 165.304688 83.433594 164.625 C 83.5 163.945312 83.601562 163.269531 83.734375 162.601562 C 83.867188 161.933594 84.03125 161.273438 84.230469 160.617188 C 84.429688 159.964844 84.65625 159.324219 84.917969 158.695312 C 85.179688 158.0625 85.472656 157.449219 85.792969 156.847656 C 86.113281 156.242188 86.464844 155.660156 86.84375 155.09375 C 87.222656 154.523438 87.628906 153.976562 88.0625 153.449219 C 88.496094 152.921875 88.953125 152.417969 89.433594 151.933594 C 89.917969 151.453125 90.421875 150.996094 90.949219 150.5625 C 91.476562 150.128906 92.023438 149.722656 92.59375 149.34375 C 93.160156 148.964844 93.742188 148.613281 94.347656 148.292969 C 94.949219 147.972656 95.5625 147.679688 96.195312 147.417969 C 96.824219 147.15625 97.464844 146.929688 98.117188 146.730469 C 98.773438 146.53125 99.433594 146.367188 100.101562 146.234375 C 100.769531 146.101562 101.445312 146 102.125 145.933594 C 102.804688 145.867188 103.484375 145.832031 104.167969 145.832031 C 104.847656 145.832031 105.53125 145.867188 106.207031 145.933594 C 106.886719 146 107.5625 146.101562 108.230469 146.234375 C 108.898438 146.367188 109.5625 146.53125 110.214844 146.730469 C 110.867188 146.929688 111.507812 147.15625 112.140625 147.417969 C 112.769531 147.679688 113.386719 147.972656 113.988281 148.292969 C 114.589844 148.613281 115.171875 148.964844 115.742188 149.34375 C 116.308594 149.722656 116.855469 150.128906 117.382812 150.5625 C 117.910156 150.996094 118.414062 151.453125 118.898438 151.933594 C 119.378906 152.417969 119.839844 152.921875 120.269531 153.449219 C 120.703125 153.976562 121.109375 154.523438 121.488281 155.09375 C 121.867188 155.660156 122.21875 156.242188 122.539062 156.847656 C 122.863281 157.449219 123.152344 158.0625 123.414062 158.695312 C 123.675781 159.324219 123.90625 159.964844 124.101562 160.617188 C 124.300781 161.273438 124.464844 161.933594 124.601562 162.601562 C 124.734375 163.269531 124.832031 163.945312 124.898438 164.625 C 124.964844 165.304688 125 165.984375 125 166.667969 L 125 270.832031 C 125 271.515625 124.964844 272.195312 124.898438 272.875 C 124.832031 273.554688 124.734375 274.226562 124.601562 274.898438 C 124.464844 275.566406 124.300781 276.226562 124.101562 276.882812 C 123.90625 277.535156 123.675781 278.175781 123.414062 278.804688 C 123.152344 279.4375 122.863281 280.050781 122.539062 280.652344 C 122.21875 281.253906 121.867188 281.839844 121.488281 282.40625 C 121.109375 282.976562 120.703125 283.523438 120.269531 284.050781 C 119.839844 284.578125 119.378906 285.082031 118.898438 285.566406 C 118.414062 286.046875 117.910156 286.503906 117.382812 286.9375 C 116.855469 287.371094 116.308594 287.777344 115.742188 288.15625 C 115.171875 288.535156 114.589844 288.886719 113.988281 289.207031 C 113.386719 289.527344 112.769531 289.820312 112.140625 290.082031 C 111.507812 290.34375 110.867188 290.570312 110.214844 290.769531 C 109.5625 290.96875 108.898438 291.132812 108.230469 291.265625 C 107.5625 291.398438 106.886719 291.5 106.207031 291.566406 C 105.53125 291.632812 104.847656 291.667969 104.167969 291.667969 Z M 104.167969 291.667969 " fill-opacity="1" fill-rule="nonzero"/><path fill="#ffffff" d="M 104.167969 125.207031 C 103.484375 125.210938 102.800781 125.179688 102.121094 125.113281 C 101.441406 125.046875 100.765625 124.949219 100.09375 124.816406 C 99.425781 124.6875 98.761719 124.523438 98.109375 124.324219 C 97.453125 124.128906 96.808594 123.902344 96.179688 123.640625 C 95.546875 123.382812 94.929688 123.09375 94.324219 122.773438 C 93.722656 122.453125 93.136719 122.101562 92.566406 121.722656 C 91.996094 121.347656 91.445312 120.941406 90.917969 120.511719 C 90.386719 120.078125 89.878906 119.621094 89.394531 119.140625 C 88.910156 118.660156 88.449219 118.152344 88.015625 117.628906 C 87.582031 117.101562 87.171875 116.554688 86.789062 115.988281 C 86.410156 115.421875 86.054688 114.835938 85.730469 114.234375 C 85.40625 113.632812 85.113281 113.015625 84.847656 112.386719 C 84.585938 111.757812 84.351562 111.113281 84.152344 110.460938 C 83.953125 109.808594 83.78125 109.148438 83.648438 108.476562 C 83.511719 107.808594 83.410156 107.132812 83.339844 106.453125 C 83.269531 105.773438 83.234375 105.09375 83.230469 104.410156 C 83.226562 103.726562 83.257812 103.042969 83.320312 102.363281 C 83.386719 101.683594 83.484375 101.007812 83.613281 100.335938 C 83.742188 99.667969 83.90625 99.003906 84.101562 98.347656 C 84.296875 97.695312 84.523438 97.050781 84.785156 96.417969 C 85.042969 95.785156 85.332031 95.167969 85.648438 94.5625 C 85.96875 93.960938 86.316406 93.371094 86.695312 92.800781 C 87.070312 92.234375 87.476562 91.683594 87.90625 91.152344 C 88.335938 90.621094 88.792969 90.113281 89.273438 89.628906 C 89.753906 89.144531 90.257812 88.683594 90.785156 88.246094 C 91.308594 87.808594 91.855469 87.398438 92.421875 87.019531 C 92.988281 86.636719 93.570312 86.28125 94.171875 85.957031 C 94.773438 85.628906 95.390625 85.335938 96.019531 85.070312 C 96.648438 84.804688 97.289062 84.574219 97.941406 84.371094 C 98.59375 84.167969 99.257812 84 99.925781 83.863281 C 100.59375 83.726562 101.269531 83.621094 101.949219 83.550781 C 102.628906 83.480469 103.308594 83.441406 103.992188 83.4375 C 104.675781 83.433594 105.359375 83.464844 106.039062 83.527344 C 106.71875 83.589844 107.394531 83.683594 108.066406 83.816406 C 108.738281 83.945312 109.398438 84.105469 110.054688 84.300781 C 110.710938 84.496094 111.355469 84.71875 111.988281 84.976562 C 112.621094 85.234375 113.238281 85.523438 113.84375 85.839844 C 114.449219 86.160156 115.035156 86.507812 115.605469 86.882812 C 116.175781 87.257812 116.726562 87.660156 117.257812 88.09375 C 117.789062 88.523438 118.296875 88.976562 118.785156 89.457031 C 119.269531 89.9375 119.734375 90.4375 120.171875 90.964844 C 120.605469 91.488281 121.015625 92.035156 121.402344 92.601562 C 121.785156 93.167969 122.140625 93.75 122.464844 94.351562 C 122.792969 94.949219 123.085938 95.566406 123.355469 96.195312 C 123.621094 96.824219 123.855469 97.464844 124.058594 98.117188 C 124.261719 98.769531 124.429688 99.429688 124.570312 100.097656 C 124.707031 100.769531 124.8125 101.441406 124.882812 102.121094 C 124.957031 102.800781 124.996094 103.484375 125 104.167969 L 125 104.375 C 125 105.058594 124.964844 105.738281 124.898438 106.417969 C 124.832031 107.097656 124.734375 107.769531 124.601562 108.4375 C 124.464844 109.109375 124.300781 109.769531 124.101562 110.421875 C 123.90625 111.074219 123.675781 111.71875 123.414062 112.347656 C 123.152344 112.976562 122.863281 113.59375 122.539062 114.195312 C 122.21875 114.796875 121.867188 115.382812 121.488281 115.949219 C 121.109375 116.515625 120.703125 117.0625 120.269531 117.589844 C 119.839844 118.117188 119.378906 118.625 118.898438 119.105469 C 118.414062 119.589844 117.910156 120.046875 117.382812 120.480469 C 116.855469 120.914062 116.308594 121.316406 115.742188 121.695312 C 115.171875 122.078125 114.589844 122.425781 113.988281 122.75 C 113.386719 123.070312 112.769531 123.363281 112.140625 123.621094 C 111.507812 123.882812 110.867188 124.113281 110.214844 124.3125 C 109.5625 124.507812 108.898438 124.675781 108.230469 124.808594 C 107.5625 124.941406 106.886719 125.042969 106.207031 125.109375 C 105.53125 125.175781 104.847656 125.207031 104.167969 125.207031 Z M 104.167969 125.207031 " fill-opacity="1" fill-rule="nonzero"/><path fill="#ffffff" d="M 187.5 291.667969 C 186.816406 291.667969 186.136719 291.632812 185.457031 291.566406 C 184.777344 291.5 184.105469 291.398438 183.4375 291.265625 C 182.765625 291.132812 182.105469 290.96875 181.453125 290.769531 C 180.800781 290.570312 180.15625 290.34375 179.527344 290.082031 C 178.898438 289.820312 178.28125 289.527344 177.679688 289.207031 C 177.078125 288.886719 176.492188 288.535156 175.925781 288.15625 C 175.359375 287.777344 174.8125 287.371094 174.285156 286.9375 C 173.757812 286.503906 173.25 286.046875 172.769531 285.566406 C 172.285156 285.082031 171.828125 284.578125 171.394531 284.050781 C 170.960938 283.523438 170.558594 282.976562 170.175781 282.40625 C 169.796875 281.839844 169.449219 281.253906 169.125 280.652344 C 168.804688 280.050781 168.511719 279.4375 168.253906 278.804688 C 167.992188 278.175781 167.761719 277.535156 167.5625 276.882812 C 167.367188 276.226562 167.199219 275.566406 167.066406 274.898438 C 166.933594 274.226562 166.832031 273.554688 166.765625 272.875 C 166.699219 272.195312 166.667969 271.515625 166.667969 270.832031 L 166.667969 166.667969 C 166.667969 165.984375 166.699219 165.304688 166.765625 164.625 C 166.832031 163.945312 166.933594 163.269531 167.066406 162.601562 C 167.199219 161.933594 167.367188 161.273438 167.5625 160.617188 C 167.761719 159.964844 167.992188 159.324219 168.253906 158.695312 C 168.511719 158.0625 168.804688 157.449219 169.125 156.847656 C 169.449219 156.242188 169.796875 155.660156 170.175781 155.09375 C 170.558594 154.523438 170.960938 153.976562 171.394531 153.449219 C 171.828125 152.921875 172.285156 152.417969 172.769531 151.933594 C 173.25 151.453125 173.757812 150.996094 174.285156 150.5625 C 174.8125 150.128906 175.359375 149.722656 175.925781 149.34375 C 176.492188 148.964844 177.078125 148.613281 177.679688 148.292969 C 178.28125 147.972656 178.898438 147.679688 179.527344 147.417969 C 180.15625 147.15625 180.800781 146.929688 181.453125 146.730469 C 182.105469 146.53125 182.765625 146.367188 183.4375 146.234375 C 184.105469 146.101562 184.777344 146 185.457031 145.933594 C 186.136719 145.867188 186.816406 145.832031 187.5 145.832031 C 188.183594 145.832031 188.863281 145.867188 189.542969 145.933594 C 190.222656 146 190.894531 146.101562 191.5625 146.234375 C 192.234375 146.367188 192.894531 146.53125 193.546875 146.730469 C 194.199219 146.929688 194.84375 147.15625 195.472656 147.417969 C 196.101562 147.679688 196.71875 147.972656 197.320312 148.292969 C 197.921875 148.613281 198.507812 148.964844 199.074219 149.34375 C 199.640625 149.722656 200.1875 150.128906 200.714844 150.5625 C 201.242188 150.996094 201.75 151.453125 202.230469 151.933594 C 202.714844 152.417969 203.171875 152.921875 203.605469 153.449219 C 204.039062 153.976562 204.441406 154.523438 204.820312 155.09375 C 205.203125 155.660156 205.550781 156.242188 205.875 156.847656 C 206.195312 157.449219 206.488281 158.0625 206.746094 158.695312 C 207.007812 159.324219 207.238281 159.964844 207.4375 160.617188 C 207.632812 161.273438 207.800781 161.933594 207.933594 162.601562 C 208.066406 163.269531 208.167969 163.945312 208.234375 164.625 C 208.300781 165.304688 208.332031 165.984375 208.332031 166.667969 L 208.332031 270.832031 C 208.332031 271.515625 208.300781 272.195312 208.234375 272.875 C 208.167969 273.554688 208.066406 274.226562 207.933594 274.898438 C 207.800781 275.566406 207.632812 276.226562 207.4375 276.882812 C 207.238281 277.535156 207.007812 278.175781 206.746094 278.804688 C 206.488281 279.4375 206.195312 280.050781 205.875 280.652344 C 205.550781 281.253906 205.203125 281.839844 204.820312 282.40625 C 204.441406 282.976562 204.039062 283.523438 203.605469 284.050781 C 203.171875 284.578125 202.714844 285.082031 202.230469 285.566406 C 201.75 286.046875 201.242188 286.503906 200.714844 286.9375 C 200.1875 287.371094 199.640625 287.777344 199.074219 288.15625 C 198.507812 288.535156 197.921875 288.886719 197.320312 289.207031 C 196.71875 289.527344 196.101562 289.820312 195.472656 290.082031 C 194.84375 290.34375 194.199219 290.570312 193.546875 290.769531 C 192.894531 290.96875 192.234375 291.132812 191.5625 291.265625 C 190.894531 291.398438 190.222656 291.5 189.542969 291.566406 C 188.863281 291.632812 188.183594 291.667969 187.5 291.667969 Z M 187.5 291.667969 " fill-opacity="1" fill-rule="nonzero"/><path fill="#ffffff" d="M 270.832031 291.667969 C 270.152344 291.667969 269.46875 291.632812 268.792969 291.566406 C 268.113281 291.5 267.4375 291.398438 266.769531 291.265625 C 266.101562 291.132812 265.4375 290.96875 264.785156 290.769531 C 264.132812 290.570312 263.492188 290.34375 262.859375 290.082031 C 262.230469 289.820312 261.613281 289.527344 261.011719 289.207031 C 260.410156 288.886719 259.828125 288.535156 259.257812 288.15625 C 258.691406 287.777344 258.144531 287.371094 257.617188 286.9375 C 257.089844 286.503906 256.585938 286.046875 256.101562 285.566406 C 255.621094 285.082031 255.160156 284.578125 254.730469 284.050781 C 254.296875 283.523438 253.890625 282.976562 253.511719 282.40625 C 253.132812 281.839844 252.78125 281.253906 252.460938 280.652344 C 252.136719 280.050781 251.847656 279.4375 251.585938 278.804688 C 251.324219 278.175781 251.09375 277.535156 250.898438 276.882812 C 250.699219 276.226562 250.535156 275.566406 250.398438 274.898438 C 250.265625 274.226562 250.167969 273.554688 250.101562 272.875 C 250.035156 272.195312 250 271.515625 250 270.832031 L 250 208.332031 C 250 207.652344 249.964844 206.96875 249.898438 206.292969 C 249.832031 205.613281 249.734375 204.9375 249.601562 204.269531 C 249.464844 203.601562 249.300781 202.9375 249.101562 202.285156 C 248.90625 201.632812 248.675781 200.992188 248.414062 200.359375 C 248.152344 199.730469 247.863281 199.113281 247.539062 198.511719 C 247.21875 197.910156 246.867188 197.328125 246.488281 196.757812 C 246.109375 196.191406 245.703125 195.644531 245.269531 195.117188 C 244.839844 194.589844 244.378906 194.085938 243.898438 193.601562 C 243.414062 193.121094 242.910156 192.660156 242.382812 192.230469 C 241.855469 191.796875 241.308594 191.390625 240.742188 191.011719 C 240.171875 190.632812 239.589844 190.28125 238.988281 189.960938 C 238.386719 189.636719 237.769531 189.347656 237.140625 189.085938 C 236.507812 188.824219 235.867188 188.59375 235.214844 188.398438 C 234.5625 188.199219 233.898438 188.035156 233.230469 187.898438 C 232.5625 187.765625 231.886719 187.667969 231.207031 187.601562 C 230.53125 187.535156 229.847656 187.5 229.167969 187.5 C 228.484375 187.5 227.804688 187.535156 227.125 187.601562 C 226.445312 187.667969 225.769531 187.765625 225.101562 187.898438 C 224.433594 188.035156 223.773438 188.199219 223.117188 188.398438 C 222.464844 188.59375 221.824219 188.824219 221.195312 189.085938 C 220.5625 189.347656 219.949219 189.636719 219.347656 189.960938 C 218.742188 190.28125 218.160156 190.632812 217.59375 191.011719 C 217.023438 191.390625 216.476562 191.796875 215.949219 192.230469 C 215.421875 192.660156 214.917969 193.121094 214.433594 193.601562 C 213.953125 194.085938 213.496094 194.589844 213.0625 195.117188 C 212.628906 195.644531 212.222656 196.191406 211.84375 196.757812 C 211.464844 197.328125 211.113281 197.910156 210.792969 198.511719 C 210.472656 199.113281 210.179688 199.730469 209.917969 200.359375 C 209.65625 200.992188 209.429688 201.632812 209.230469 202.285156 C 209.03125 202.9375 208.867188 203.601562 208.734375 204.269531 C 208.601562 204.9375 208.5 205.613281 208.433594 206.292969 C 208.367188 206.96875 208.332031 207.652344 208.332031 208.332031 C 208.332031 209.015625 208.300781 209.695312 208.234375 210.375 C 208.167969 211.054688 208.066406 211.726562 207.933594 212.398438 C 207.800781 213.066406 207.632812 213.726562 207.4375 214.382812 C 207.238281 215.035156 207.007812 215.675781 206.746094 216.304688 C 206.488281 216.9375 206.195312 217.550781 205.875 218.152344 C 205.550781 218.753906 205.203125 219.339844 204.820312 219.90625 C 204.441406 220.476562 204.039062 221.023438 203.605469 221.550781 C 203.171875 222.078125 202.714844 222.582031 202.230469 223.066406 C 201.75 223.546875 201.242188 224.003906 200.714844 224.4375 C 200.1875 224.871094 199.640625 225.277344 199.074219 225.65625 C 198.507812 226.035156 197.921875 226.386719 197.320312 226.707031 C 196.71875 227.027344 196.101562 227.320312 195.472656 227.582031 C 194.84375 227.84375 194.199219 228.070312 193.546875 228.269531 C 192.894531 228.46875 192.234375 228.632812 191.5625 228.765625 C 190.894531 228.898438 190.222656 229 189.542969 229.066406 C 188.863281 229.132812 188.183594 229.167969 187.5 229.167969 C 186.816406 229.167969 186.136719 229.132812 185.457031 229.066406 C 184.777344 229 184.105469 228.898438 183.4375 228.765625 C 182.765625 228.632812 182.105469 228.46875 181.453125 228.269531 C 180.800781 228.070312 180.15625 227.84375 179.527344 227.582031 C 178.898438 227.320312 178.28125 227.027344 177.679688 226.707031 C 177.078125 226.386719 176.492188 226.035156 175.925781 225.65625 C 175.359375 225.277344 174.8125 224.871094 174.285156 224.4375 C 173.757812 224.003906 173.25 223.546875 172.769531 223.066406 C 172.285156 222.582031 171.828125 222.078125 171.394531 221.550781 C 170.960938 221.023438 170.558594 220.476562 170.175781 219.90625 C 169.796875 219.339844 169.449219 218.753906 169.125 218.152344 C 168.804688 217.550781 168.511719 216.9375 168.253906 216.304688 C 167.992188 215.675781 167.761719 215.035156 167.5625 214.382812 C 167.367188 213.726562 167.199219 213.066406 167.066406 212.398438 C 166.933594 211.726562 166.832031 211.054688 166.765625 210.375 C 166.699219 209.695312 166.667969 209.015625 166.667969 208.332031 C 166.667969 206.285156 166.765625 204.246094 166.96875 202.207031 C 167.167969 200.171875 167.46875 198.148438 167.867188 196.140625 C 168.265625 194.132812 168.761719 192.148438 169.359375 190.191406 C 169.953125 188.230469 170.640625 186.308594 171.425781 184.414062 C 172.207031 182.523438 173.082031 180.675781 174.046875 178.871094 C 175.011719 177.066406 176.0625 175.3125 177.199219 173.609375 C 178.335938 171.90625 179.554688 170.265625 180.851562 168.683594 C 182.152344 167.101562 183.523438 165.585938 184.972656 164.140625 C 186.417969 162.691406 187.933594 161.320312 189.515625 160.019531 C 191.097656 158.722656 192.742188 157.503906 194.445312 156.367188 C 196.144531 155.230469 197.898438 154.179688 199.703125 153.214844 C 201.507812 152.25 203.359375 151.375 205.25 150.589844 C 207.140625 149.808594 209.066406 149.117188 211.023438 148.523438 C 212.984375 147.929688 214.964844 147.433594 216.972656 147.035156 C 218.980469 146.636719 221.003906 146.335938 223.039062 146.132812 C 225.078125 145.933594 227.121094 145.832031 229.167969 145.832031 C 231.214844 145.832031 233.253906 145.933594 235.292969 146.132812 C 237.328125 146.335938 239.351562 146.636719 241.359375 147.035156 C 243.367188 147.433594 245.351562 147.929688 247.308594 148.523438 C 249.269531 149.117188 251.191406 149.808594 253.085938 150.589844 C 254.976562 151.375 256.824219 152.25 258.628906 153.214844 C 260.433594 154.179688 262.1875 155.230469 263.890625 156.367188 C 265.589844 157.503906 267.234375 158.722656 268.816406 160.019531 C 270.398438 161.320312 271.914062 162.691406 273.359375 164.140625 C 274.808594 165.585938 276.179688 167.101562 277.480469 168.683594 C 278.777344 170.265625 279.996094 171.90625 281.132812 173.609375 C 282.269531 175.3125 283.320312 177.066406 284.285156 178.871094 C 285.25 180.675781 286.125 182.523438 286.910156 184.414062 C 287.691406 186.308594 288.382812 188.230469 288.976562 190.191406 C 289.570312 192.148438 290.066406 194.132812 290.464844 196.140625 C 290.863281 198.148438 291.164062 200.171875 291.367188 202.207031 C 291.566406 204.246094 291.667969 206.285156 291.667969 208.332031 L 291.667969 270.832031 C 291.667969 271.515625 291.632812 272.195312 291.566406 272.875 C 291.5 273.554688 291.398438 274.226562 291.265625 274.898438 C 291.132812 275.566406 290.96875 276.226562 290.769531 276.882812 C 290.570312 277.535156 290.34375 278.175781 290.082031 278.804688 C 289.820312 279.4375 289.527344 280.050781 289.207031 280.652344 C 288.886719 281.253906 288.535156 281.839844 288.15625 282.40625 C 287.777344 282.976562 287.371094 283.523438 286.9375 284.050781 C 286.503906 284.578125 286.046875 285.082031 285.566406 285.566406 C 285.082031 286.046875 284.578125 286.503906 284.050781 286.9375 C 283.523438 287.371094 282.976562 287.777344 282.40625 288.15625 C 281.839844 288.535156 281.253906 288.886719 280.652344 289.207031 C 280.050781 289.527344 279.4375 289.820312 278.804688 290.082031 C 278.175781 290.34375 277.535156 290.570312 276.882812 290.769531 C 276.226562 290.96875 275.566406 291.132812 274.898438 291.265625 C 274.226562 291.398438 273.554688 291.5 272.875 291.566406 C 272.195312 291.632812 271.515625 291.667969 270.832031 291.667969 Z M 270.832031 291.667969 " fill-opacity="1" fill-rule="nonzero"/></svg>